<svg xmlns="http://www.w3.org/2000/svg" width="26" height="26" viewBox="0 0 26 26">
  <path id="gear" d="M25.388,10.04l-2-.434a10.875,10.875,0,0,0-.643-1.551l1.106-1.721a.777.777,0,0,0-.1-.969L20.636,2.251a.777.777,0,0,0-.969-.1L17.946,3.253a10.875,10.875,0,0,0-1.551-.643l-.434-2A.777.777,0,0,0,15.2,0H10.8a.777.777,0,0,0-.759.612l-.434,2a10.875,10.875,0,0,0-1.551.643L6.334,2.147a.777.777,0,0,0-.969.1L2.251,5.364a.777.777,0,0,0-.1.969L3.253,8.054A10.875,10.875,0,0,0,2.61,9.605l-2,.434A.777.777,0,0,0,0,10.8v4.4a.777.777,0,0,0,.612.759l2,.434a10.875,10.875,0,0,0,.643,1.551L2.147,19.666a.777.777,0,0,0,.1.969l3.113,3.113a.777.777,0,0,0,.969.1l1.721-1.106a10.875,10.875,0,0,0,1.551.643l.434,2A.777.777,0,0,0,10.8,26h4.4a.777.777,0,0,0,.759-.612l.434-2a10.876,10.876,0,0,0,1.551-.643l1.721,1.106a.777.777,0,0,0,.969-.1l3.113-3.113a.777.777,0,0,0,.1-.969l-1.106-1.721a10.876,10.876,0,0,0,.643-1.551l2-.434A.777.777,0,0,0,26,15.2V10.8A.777.777,0,0,0,25.388,10.04ZM17.661,13A4.661,4.661,0,1,1,13,8.339,4.667,4.667,0,0,1,17.661,13Zm0,0" fill="#6c6c6c"/>
</svg>
