<svg xmlns="http://www.w3.org/2000/svg" width="18.945" height="18.945" viewBox="0 0 18.945 18.945">
  <path id="gear" d="M18.5,7.316,17.043,7a7.924,7.924,0,0,0-.469-1.13l.806-1.254a.566.566,0,0,0-.076-.706L15.037,1.64a.566.566,0,0,0-.706-.076l-1.254.806a7.925,7.925,0,0,0-1.13-.469L11.63.446A.566.566,0,0,0,11.077,0H7.869a.566.566,0,0,0-.553.446L7,1.9a7.925,7.925,0,0,0-1.13.469L4.615,1.564a.566.566,0,0,0-.706.076L1.64,3.909a.566.566,0,0,0-.076.706L2.37,5.869A7.925,7.925,0,0,0,1.9,7L.446,7.316A.566.566,0,0,0,0,7.869v3.208a.566.566,0,0,0,.446.553l1.456.317a7.925,7.925,0,0,0,.469,1.13L1.564,14.33a.566.566,0,0,0,.076.706l2.268,2.268a.566.566,0,0,0,.706.076l1.254-.806A7.924,7.924,0,0,0,7,17.043L7.316,18.5a.566.566,0,0,0,.553.446h3.208a.566.566,0,0,0,.553-.446l.317-1.456a7.924,7.924,0,0,0,1.13-.469l1.254.806a.566.566,0,0,0,.706-.076l2.268-2.268a.566.566,0,0,0,.076-.706l-.806-1.254a7.924,7.924,0,0,0,.469-1.13L18.5,11.63a.566.566,0,0,0,.446-.553V7.869A.566.566,0,0,0,18.5,7.316Zm-5.63,2.157a3.4,3.4,0,1,1-3.4-3.4A3.4,3.4,0,0,1,12.869,9.473Zm0,0" fill="#fff"/>
</svg>
