<svg xmlns="http://www.w3.org/2000/svg" width="26.398" height="26.401" viewBox="0 0 26.398 26.401">
  <path id="home-run_1_" data-name="home-run (1)" d="M25.689,11.483l0,0L14.917.712a2.43,2.43,0,0,0-3.437,0L.716,11.476l-.011.011a2.429,2.429,0,0,0,1.617,4.141q.037,0,.075,0h.429v7.925A2.848,2.848,0,0,0,5.672,26.4H9.885a.774.774,0,0,0,.773-.773V19.414a1.3,1.3,0,0,1,1.3-1.3h2.485a1.3,1.3,0,0,1,1.3,1.3v6.214a.773.773,0,0,0,.773.773h4.213a2.848,2.848,0,0,0,2.845-2.844V15.631h.4a2.431,2.431,0,0,0,1.72-4.148Zm0,0" transform="translate(0.001)" fill="#fff"/>
</svg>
