<svg xmlns="http://www.w3.org/2000/svg" width="22" height="22" viewBox="0 0 22 22">
  <path id="search" d="M22.65,20.039l-5.423-5.446a8.672,8.672,0,0,0,2.158-5.71A9.056,9.056,0,0,0,10.184,0a9.056,9.056,0,0,0-9.2,8.882,9.056,9.056,0,0,0,9.2,8.882,9.328,9.328,0,0,0,5.271-1.607l5.465,5.487a1.231,1.231,0,0,0,1.7.032A1.132,1.132,0,0,0,22.65,20.039ZM10.184,2.317a6.693,6.693,0,0,1,6.8,6.565,6.693,6.693,0,0,1-6.8,6.565,6.693,6.693,0,0,1-6.8-6.565A6.693,6.693,0,0,1,10.184,2.317Z" transform="translate(-0.984)" fill="#546ffe"/>
</svg>
